<?xml version="1.0" encoding="utf-8"?>
<!-- Generator: Adobe Illustrator 22.1.0, SVG Export Plug-In . SVG Version: 6.00 Build 0)  -->
<svg version="1.1" id="Layer_1" xmlns="http://www.w3.org/2000/svg" xmlns:xlink="http://www.w3.org/1999/xlink" x="0px" y="0px"
	 viewBox="0 0 841.9 595.3" style="enable-background:new 0 0 841.9 595.3;" xml:space="preserve">
<style type="text/css">
	.st0{fill:#E298BD;}
	.st1{fill:#E59AB8;}
</style>
<path class="st0" d="M421.5,275L296.6,150.2c-6.1-6.1-16-6.1-22.1,0L149.6,275c-6.1,6.1-6.1,16,0,22.1L274.5,422
	c6.1,6.1,16,6.1,22.1,0l124.8-124.8C427.6,291,427.6,281.1,421.5,275z M411.7,297.2L296.6,412.2c-6.1,6.1-16,6.1-22.1,0L159.4,297.2
	c-6.1-6.1-6.1-16,0-22.1L274.5,160c6.1-6.1,16-6.1,22.1,0L411.7,275C417.8,281.1,417.8,291,411.7,297.2z"/>
<path class="st0" d="M450.4,129.4L380.1,59c-3.4-3.4-9-3.4-12.5,0l-70.4,70.4c-3.4,3.4-3.4,9,0,12.5l70.4,70.4c3.4,3.4,9,3.4,12.5,0
	l70.4-70.4C453.9,138.4,453.9,132.8,450.4,129.4z M444.9,141.8l-64.9,64.9c-3.4,3.4-9,3.4-12.5,0l-64.9-64.9c-3.4-3.4-3.4-9,0-12.5
	l64.9-64.9c3.4-3.4,9-3.4,12.5,0l64.9,64.9C448.4,132.8,448.4,138.4,444.9,141.8z"/>
<path class="st0" d="M212,371.1l-70.4-70.4c-3.4-3.4-9-3.4-12.5,0l-70.4,70.4c-3.4,3.4-3.4,9,0,12.5l70.4,70.4c3.4,3.4,9,3.4,12.5,0
	l70.4-70.4C215.5,380.1,215.5,374.5,212,371.1z M206.5,383.5l-64.9,64.9c-3.4,3.4-9,3.4-12.5,0l-64.9-64.9c-3.4-3.4-3.4-9,0-12.5
	l64.9-64.9c3.4-3.4,9-3.4,12.5,0l64.9,64.9C210,374.5,210,380.1,206.5,383.5z"/>
<path class="st0" d="M564.1,507.3l124.8-124.8c6.1-6.1,6.1-16,0-22.1L564.1,235.5c-6.1-6.1-16-6.1-22.1,0L417.1,360.3
	c-6.1,6.1-6.1,16,0,22.1L542,507.3C548.1,513.4,558,513.4,564.1,507.3z M542,497.6L426.9,382.5c-6.1-6.1-6.1-16,0-22.1L542,245.3
	c6.1-6.1,16-6.1,22.1,0l115.1,115.1c6.1,6.1,6.1,16,0,22.1L564.1,497.6C558,503.7,548.1,503.7,542,497.6z"/>
<path class="st0" d="M709.7,536.3l70.4-70.4c3.4-3.4,3.4-9,0-12.5l-70.4-70.4c-3.4-3.4-9-3.4-12.5,0l-70.4,70.4
	c-3.4,3.4-3.4,9,0,12.5l70.4,70.4C700.7,539.7,706.3,539.7,709.7,536.3z M697.3,530.8l-64.9-64.9c-3.4-3.4-3.4-9,0-12.5l64.9-64.9
	c3.4-3.4,9-3.4,12.5,0l64.9,64.9c3.4,3.4,3.4,9,0,12.5l-64.9,64.9C706.3,534.2,700.7,534.2,697.3,530.8z"/>
<path class="st0" d="M468,297.9l70.4-70.4c3.4-3.4,3.4-9,0-12.5L468,144.6c-3.4-3.4-9-3.4-12.5,0L385.2,215c-3.4,3.4-3.4,9,0,12.5
	l70.4,70.4C459,301.3,464.6,301.3,468,297.9z M455.6,292.4l-64.9-64.9c-3.4-3.4-3.4-9,0-12.5l64.9-64.9c3.4-3.4,9-3.4,12.5,0
	l64.9,64.9c3.4,3.4,3.4,9,0,12.5L468,292.4C464.6,295.8,459,295.8,455.6,292.4z"/>
<path class="st1" d="M521.6,367.8l-40.4-40.4c-2-2-5.2-2-7.2,0l-40.4,40.4c-2,2-2,5.2,0,7.2l40.4,40.4c2,2,5.2,2,7.2,0l40.4-40.4
	C523.5,373,523.5,369.8,521.6,367.8z M518.4,375l-37.2,37.2c-2,2-5.2,2-7.2,0L436.9,375c-2-2-2-5.2,0-7.2l37.2-37.2c2-2,5.2-2,7.2,0
	l37.2,37.2C520.4,369.8,520.4,373,518.4,375z"/>
<path class="st1" d="M521.5,319l-16-16c-0.8-0.8-2-0.8-2.8,0l-16,16c-0.8,0.8-0.8,2,0,2.8l16,16c0.8,0.8,2,0.8,2.8,0l16-16
	C522.2,321,522.2,319.8,521.5,319z M520.2,321.8l-14.7,14.7c-0.8,0.8-2,0.8-2.8,0L488,321.8c-0.8-0.8-0.8-2,0-2.8l14.7-14.7
	c0.8-0.8,2-0.8,2.8,0l14.7,14.7C521,319.8,521,321,520.2,321.8z"/>
</svg>
