<?xml version="1.0" encoding="utf-8"?>
<!-- Generator: Adobe Illustrator 22.1.0, SVG Export Plug-In . SVG Version: 6.00 Build 0)  -->
<svg version="1.1" id="Layer_1" xmlns="http://www.w3.org/2000/svg" xmlns:xlink="http://www.w3.org/1999/xlink" x="0px" y="0px"
	 viewBox="0 0 534.3 546.9" style="enable-background:new 0 0 534.3 546.9;" xml:space="preserve">
<style type="text/css">
	.st0{fill:#FEBDD0;}
</style>
<g>
	<path class="st0" d="M310,49.8c4.9,3,4.8,7.9,4.7,12.8c-0.1,10,0,10,10,10c12.4,0,24.9-0.1,37.4,0.1c2.8,0,4.7-0.6,6.4-3
		c3.6-5.2,6.5-5.9,12.1-3.1c16.1,8.1,32.6,15.1,46.3,27.1c32.9,28.7,49.2,64.7,46.9,108.5c-0.6,10.3-4.5,19.7-10.7,27.8
		c-2.2,2.8-2.1,4.9-0.7,7.9c7,15.5,14,31.1,20.8,46.6c5.8,13-0.9,23.5-15.1,23.5c-2.8,0-5.6,0-8.9,0c0,6.9-0.1,13.4,0,19.9
		c0.1,4.2-0.9,7.8-4.3,10.2c-9.4,6.6-12.5,15.5-11.2,26.8c0.9,8.2,0.3,16.6,0.2,24.9c-0.1,6.8-2.7,9.4-9.5,9.4
		c-14,0.1-27.9,0.4-41.8-0.2c-4.8-0.2-9.9-2.1-14.2-4.4c-13-6.7-25.7-14-39.1-21.3c-5.4,8.9-10.9,18.1-16.4,27.4
		c-0.6,0.9-0.4,2.3-0.4,3.5c0,11.3-0.2,22.5,0.1,33.8c0,2.1,1.1,4.6,2.6,6.1c15.2,15.5,30.6,30.7,45.9,46.1c0.7,0.7,1.2,1.2,1.9,1.9
		c2.6,2.6,3.5,5.5,2,8.9c-1.4,3.1-4.1,4.6-7.5,4.6c-4.9,0-9.8,0-14.7,0c-74.4,0-148.6,0-223,0c-1.3,0-2.7,0-4,0
		c-3.4,0.1-6.2-1.2-7.6-4.5c-1.4-3.3-0.8-6.4,1.9-8.9c2.2-2.2,4.4-4.4,6.6-6.6c18.7-18.7,37.3-37.4,56-55.9c2.2-2.2,3-4.4,3-7.4
		c-0.1-34.3-0.1-68.6-0.1-102.9c0-9.2,2.2-11.4,11.2-11.4c6.2,0,12.4,0,18.9,0c0-12.7,0-25.1,0-37.6c-1-0.2-1.9-0.3-2.8-0.4
		c-5.7-0.6-7.8-2.5-8.7-8.2c-1.4-8.5-2.8-17-4.2-25.5c-0.9-5.1-4.1-6.9-8.8-5.1c-6,2.2-11.9,4.6-18,6.6c-2.3,0.8-3.1,2-3.1,4.5
		c0.2,10.5,0.2,21.1,0.3,31.6c0.1,9.3-1.9,11.3-11.1,11.3c-13.2,0-26.4,0.1-39.6,0c-2.4,0-3.9,0.4-5.1,2.8
		c-5,9.8-15.6,14.3-25.8,11.7c-9.8-2.5-17-11.7-17.1-21.9c-0.1-10.4,7.2-19.9,17.2-22.2c10.4-2.6,20.7,2,25.8,11.8
		c1.1,2.2,2.4,2.8,4.7,2.8c11.7-0.2,23.5-0.1,35.7-0.1c0-5.4-0.4-10.5,0.1-15.7c1.2-12.6-1.5-23.9-9.2-34.1
		c-1.9-2.5-3.2-5.3-4.7-8.1c-2.5-4.5-1.9-7.7,1.9-11c2.8-2.5,5.8-4.8,9.4-7.8c-8.3,0-15.7-0.1-23,0c-11,0.1-21.9,0.5-33,0.5
		c-2.3,0-3.6,0.6-4.7,2.8c-5,9.7-15.3,14.3-25.4,11.9C56.1,206,49,197.3,48.9,186.7c-0.1-10.6,6.6-19.6,16.9-22.3
		c10.4-2.8,20.5,1.8,26,11.4c0.8,1.2,2.5,2.8,3.7,2.8c23-0.2,46-0.6,69-0.9c0.6,0,1.1-0.2,2.6-0.6c-1.2-1.3-1.9-2.3-2.8-3
		c-6.3-5.2-12.5-10.4-18.9-15.6c-3.1-2.6-6.4-4.9-5.5-10c-14.4,0-28.3,0-42.3,0c-8.5,0-10.7-2.4-10.8-10.9c0-8.3-0.1-16.6,0-24.9
		c0-2.6-0.8-3.9-3.1-5.1c-9.7-5.1-14.1-15.7-11.3-26c2.7-9.8,11.9-16.7,22.1-16.7s19.4,7.1,21.9,17c2.7,10.1-1.8,20.7-11.2,25.7
		c-2.5,1.3-3.4,2.7-3.3,5.4c0.2,6.6,0.1,13.3,0.1,20.3c10.2,0,19.8,0,29.3,0c5.3,0,11.5,1.6,15.8-0.6c4-2,5.8-8.1,8.5-12.3
		c2.5-3.8,5.8-4.8,10-3.3c8.2,3,16.3,6.1,24.6,9.1c5.9,2.2,8.8,0.6,9.9-5.8c1.3-7.9,2.7-15.8,3.9-23.6c1.1-7.1,3.2-9,10.6-9
		c2.8,0,5.6,0,8.9,0c0-9.5,0.2-18.7-0.1-27.8c-0.1-4.7,1.3-8.1,5.4-10.3C256,49.8,283,49.8,310,49.8z M434.3,337.8
		c-13.6-2.5-24.2-7.7-33.1-16.3c-3.3-3.3-3.6-7.6-0.8-10.7c2.8-3.2,7-3.4,10.7-0.6c1,0.9,2,1.8,3,2.7c8.5,6.9,18.2,10.6,29.8,10.3
		c0-7.4-0.1-14.3,0-21.3c0.1-6.2,2.8-8.8,9.1-8.9c5.5-0.1,10.9,0,17,0c-0.8-1.9-1.3-3.4-2-4.8c-7.5-16.8-14.8-33.6-22.4-50.3
		c-2.3-5-1.7-8.8,2.1-12.8c6.8-7.2,10.5-16.1,11.1-26c0.8-12.7-0.9-25.2-4.7-37.3c-12.1-39.1-39-63.9-76.5-78.9
		c-10.5,14.7-21,29.4-31.4,44.2c-0.9,1.2-1,3-1,4.7c-0.1,26.6-0.1,53.1,0,79.7c0,2,0.9,4.4,2.1,6.1c5.8,8.1,12,15.9,17.7,23.9
		c1.6,2.3,2.7,5.3,2.8,8.1c0.4,8.9,0,17.8,0.2,26.7c0.1,5-2.1,8-6.7,9.7c-9.4,3.6-18.7,7.5-28.1,11.1c-2.2,0.9-3.3,1.9-3.3,4.5
		c0.1,15.1,0,30.3,0.2,45.4c0,1.4,1,3.5,2.3,4.2c15.5,9.2,31.2,18.2,46.7,27.4c8,4.7,16.4,7.1,25.8,6c4.6-0.6,9.2-0.1,13.8-0.1
		c3.2,0,6.4,0,10,0c0-10.9,0-21.1,0-31.3C428.7,347.3,428,341.9,434.3,337.8z M297.4,209.3c-5-4.2-9.6-8.5-14.7-11.9
		c-7.5-5-11.3-11-10.4-20.7c0.6-5.5,1.7-9.4,6.2-12.8c6.5-4.8,12.5-10.3,18.9-15.4c-3-5.3-5.9-10.2-8.7-15.2
		c-6.6,2.5-12.9,4.4-18.9,7.2c-7.5,3.5-14.2,4.4-20.8-1.7c-0.7-0.6-1.5-0.9-2.4-1.2c-3.8-1.6-5.6-4.4-6.2-8.5
		c-1.2-8.7-2.9-17.4-4.4-25.9c-6.2,0-11.7,0-17.6,0c-0.9,6-2.3,11.8-2.8,17.7c-0.8,8.9-3,16.5-12.7,19.6c-0.4,0.1-0.8,0.5-1.1,0.8
		c-3.6,3-7.3,3-11.6,1.2c-7.9-3.2-16.1-6.1-24.3-9.1c-2.9,5.1-5.8,10.1-8.7,15.2c4.8,4,9,8,13.8,11.2c8,5.3,12.4,11.7,11.2,22
		c-0.6,4.9-1.6,8.6-5.6,11.7c-6.6,5-12.8,10.4-19.4,15.9c3,5.2,5.9,10.2,8.7,15.2c6.2-2.3,12.1-4,17.5-6.6c8.3-4,16-5.3,23.3,1.6
		c0.4,0.4,1,0.6,1.6,0.8c3.7,1.5,5.4,4.2,6,8.1c1.3,8.7,2.9,17.5,4.5,26.2c6,0,11.6,0,17.5,0c0.9-5.8,2.3-11.4,2.8-17.1
		c0.9-9.1,2.9-17.3,13.1-20.3c0.1,0,0.3-0.1,0.4-0.2c3.9-3.5,8.1-3.3,12.8-1.4c7.8,3.1,15.7,6,23.6,8.9
		C291.6,219.3,294.4,214.6,297.4,209.3z M200.8,323.4c0,2,0,3.7,0,5.4c0,32.2-0.1,64.4,0.1,96.5c0,5.3-1.6,9.1-5.4,12.9
		c-16.2,15.9-32.1,32-48.2,48.1c-1.1,1.1-2.1,2.3-3.4,3.7c0.9,0.2,1.3,0.4,1.7,0.4c16.4,0,33,0.1,49.4-0.1c1.5,0,3.3-1,4.4-2.2
		c4.8-5.2,9.6-10.5,14-16.1c1.5-1.9,2.6-4.7,2.6-7.1c0.2-15.1,0.1-30.2,0.1-45.4c0-1.6,0.2-3.1,0.2-4.7c5.1,0,9.9,0,15.2,0
		c0,12,0,23.6,0,36.7c4.8-5.5,8.9-9.8,12.4-14.3c1.4-1.8,2.5-4.5,2.5-6.6c0.2-34.1,0.1-68.2,0.1-102.3c0-1.5-0.2-3.1-0.3-4.7
		C230.9,323.4,216.1,323.4,200.8,323.4z M353.5,262.5c-0.9-5.4-0.7-10.5-2.6-14.7c-2.4-5-6.4-9.2-10-13.6c-0.9-1.1-2.8-2-4.4-2.1
		c-10.1-0.2-20.1,0-30.2-0.2c-3.3-0.1-5.4,0.8-7,3.9c-2.9,5.6-6,6.5-12.2,4.3c-8.2-3-16.3-6.2-24.5-9.1c-3.9-1.4-7.3,0.6-8.1,4.7
		c-1.5,8.6-2.9,17.2-4.4,25.8c-1,6.3-3.3,8.4-9.8,8.5c-2.9,0-5.9,0-8.9,0c0,12.9,0,25.3,0,37.6c27.8,0,55.4,0,83.1,0
		c0-3.6,0-6.8,0-10.1c0-9.4,0.5-10.2,9.4-13.7c4.6-1.8,9-3.6,13.6-5.5c-0.1-0.4-0.2-0.8-0.3-1.1c-4.9,0-10,0-14.7,0
		c0-5.1,0-9.8,0-14.8C332.6,262.5,342.4,262.5,353.5,262.5z M239.2,65.1c0,7.3,0,14.8,0,22.2c9.7,1.6,9.7,1.6,11.5,11.6
		c1.3,7.6,2.6,15.2,3.9,22.8c0.9,4.7,4.1,6.6,8.5,4.9c7.8-2.8,15.6-5.8,23.3-8.6c7.2-2.8,9.7-2,13.4,4.7c1.3,2.5,3,3.1,5.6,3.1
		c5.5-0.2,11-0.3,16.4,0c4.7,0.3,7.6-0.8,10.4-5.3c6.2-10.1,13.6-19.5,20.4-29.2c0.7-0.9,1.1-1.9,2-3.4c-2.3,0-3.9,0-5.4,0
		c-13,0-26.1,0-39.1,0c-8.3,0-10.7-2.5-10.7-10.5c0-4,0-7.9,0-12.2C279.3,65.1,259.4,65.1,239.2,65.1z M261.7,422.2
		c0,3.8-0.2,7.3,0,10.8c0.3,4.7-1.1,8.5-4.4,12.1c-12.3,13.8-24.5,27.8-36.7,41.8c-0.9,0.9-1.5,2-2.4,3.2c19.8,0,39,0,58.3,0
		c0-22.8,0-45.3,0-67.8C271.6,422.2,266.9,422.2,261.7,422.2z M292.4,422.2c0,22.8,0,45.4,0,68c18.9,0,37.5,0,56.7,0
		c-1.4-1.5-2.3-2.6-3.3-3.6c-11.4-11.4-22.8-22.9-34.3-34.3c-2.9-2.9-4.5-6-4.3-10.2c0.3-6.6,0.1-13.2,0.1-19.9
		C302,422.2,297.3,422.2,292.4,422.2z M276.9,323.5c-5.3,0-10.1,0-14.9,0c0,27.8,0,55.5,0,83.4c7.7,0,15.1,0,22.5,0
		c7.5,0,15,0,23.9,0c-1.5-2.8-2.2-5.1-3.6-6.6c-7.1-7.4-14.2-14.7-21.8-21.7c-4.7-4.3-6.6-8.8-6.4-15.2
		C277.3,350.2,276.9,337,276.9,323.5z M292.1,323.4c0,13.9,0,27.5,0,41.1c0,0.8,0.5,1.7,1,2.3c6.6,6.6,13.2,13.2,20.1,20.1
		c4.5-7.4,8.7-14.4,12.8-21.4c-0.4-0.6-0.5-0.9-0.7-1c-0.5-0.4-0.9-0.8-1.5-0.9c-7.8-3.1-10.4-9-9.2-17.1c0.3-2,0-4.2,0-6.2
		c0-5.6,0-11.1,0-16.9C307,323.4,300,323.4,292.1,323.4z M311.1,141.1c5.3,11.4,5.3,11.4-4.2,19.2c-4.1,3.3-8.1,6.7-12.7,10.6
		c12.4,0,23.9,0,35.6,0c0-10.1,0-19.9,0-29.8C323.5,141.1,317.5,141.1,311.1,141.1z M311.3,216.6c6.3,0,12.3,0,18.3,0
		c0-10.2,0-19.9,0-29.7c-11.7,0-23,0-35.4,0c4.6,3.8,8.3,6.8,12,9.9C315.8,204.9,315.8,205,311.3,216.6z M94.3,95.3
		c4.3,0.1,7.6-3.1,7.7-7.4c0-4.3-3.3-7.7-7.5-7.7c-4,0-7.3,3.3-7.5,7.3C86.7,91.6,90.1,95.2,94.3,95.3z M101.9,277.6
		c0-4.3-3.3-7.5-7.6-7.5c-4.1,0.1-7.3,3.3-7.4,7.3c-0.1,4.2,3.2,7.6,7.5,7.7C98.6,285.2,101.9,281.9,101.9,277.6z M78.7,186.8
		c0.1-4.3-3.2-7.8-7.3-7.8c-3.9,0-7.1,3.4-7.1,7.5c0,4.1,3.1,7.3,7.1,7.5C75.4,194.1,78.7,191,78.7,186.8z"/>
	<path class="st0" d="M421.3,224.4c0-5.2-0.1-9.8,0-14.3c0.1-5.1,2.8-8.2,7.3-8.3c4.7-0.1,7.7,3,7.8,8.3c0.1,6.9,0.1,13.9,0,20.9
		c-0.1,5.7-2.8,8.5-8.5,8.6c-7.1,0.1-14.2,0.1-21.3,0c-4.9-0.1-8.2-3.1-8.3-7.4c-0.1-4.3,3.2-7.5,8.1-7.7
		C411.2,224.3,415.8,224.4,421.3,224.4z"/>
	<path class="st0" d="M375.3,155.8c-4.8,0-9.5,0-14.5,0c0-9.9,0-19.8,0-29.8c4.8,0,9.5,0,14.5,0
		C375.3,135.8,375.3,145.7,375.3,155.8z"/>
	<path class="st0" d="M375.7,186.2c-5.1,0-9.8,0-14.8,0c0-4.8,0-9.6,0-14.9c4.2,0,8.3-0.1,12.3,0.1c0.9,0.1,2.3,1.4,2.4,2.2
		C375.8,177.8,375.7,181.9,375.7,186.2z"/>
	<path class="st0" d="M375.5,202.1c0,4.9,0,9.6,0,14.6c-4.8,0-9.5,0-14.5,0c0-4.7,0-9.5,0-14.6C365.7,202.1,370.4,202.1,375.5,202.1
		z"/>
	<path class="st0" d="M257.5,179.1c-0.1,16.8-13.6,30.1-30.4,30.1c-16.9,0-30.4-13.7-30.2-30.8c0.2-16.6,13.9-30,30.7-29.9
		C244.3,148.6,257.6,162.3,257.5,179.1z M242.4,178.7c0-8.5-6.9-15.2-15.4-15.1c-8.2,0.1-14.9,6.8-14.9,15.1
		c-0.1,8.5,6.7,15.2,15.2,15.2C235.8,194,242.4,187.3,242.4,178.7z"/>
	<path class="st0" d="M216.3,398.9c0-4.9,0-9.6,0-14.6c4.8,0,9.5,0,14.6,0c0,4.7,0,9.5,0,14.6C226.2,398.9,221.5,398.9,216.3,398.9z
		"/>
	<path class="st0" d="M216.4,353.8c4.9,0,9.6,0,14.6,0c0,5,0,9.8,0,14.7c-4.9,0-9.6,0-14.6,0C216.4,363.6,216.4,358.8,216.4,353.8z"
		/>
	<path class="st0" d="M262,262.7c5,0,9.8,0,14.6,0c0,4.9,0,9.6,0,14.5c-4.7,0-9.6,0-14.6,0C262,272.6,262,267.8,262,262.7z"/>
	<path class="st0" d="M292.4,262.6c5,0,9.6,0,14.5,0c0,4.8,0,9.6,0,14.7c-4.7,0-9.5,0-14.5,0C292.4,272.6,292.4,267.7,292.4,262.6z"
		/>
</g>
</svg>
