<?xml version="1.0" encoding="utf-8"?>
<!-- Generator: Adobe Illustrator 22.1.0, SVG Export Plug-In . SVG Version: 6.00 Build 0)  -->
<svg version="1.1" id="Layer_1" xmlns="http://www.w3.org/2000/svg" xmlns:xlink="http://www.w3.org/1999/xlink" x="0px" y="0px"
	 viewBox="0 0 534.3 546.9" style="enable-background:new 0 0 534.3 546.9;" xml:space="preserve">
<style type="text/css">
	.st0{fill:#FEBDD0;}
</style>
<path class="st0" d="M487.8,452.6c12.8,2.9,14.3,5.4,11.9,18.1c-4.3,22.5-24.3,37.4-50.3,37.5c-92.7,0.1-185.4,0-278.1,0
	c-20.1,0-40.2,0.3-60.2-0.1c-23.9-0.4-43.1-15.9-47.3-37.3c-2.5-12.8-1-15.2,11.9-18.2c0-11.1,0-22.4,0-33.7c0-77.3,0-154.6,0-231.9
	c0-29.9,12-42,41.9-42c109.8,0,219.5,0,329.3,0c28.5,0,40.9,12.4,40.9,41c0,85.7,0,171.3,0,257C487.8,446.2,487.8,449.4,487.8,452.6
	z M473.7,453.5c0.3-2.8,0.6-4.8,0.6-6.8c0-88,0.1-176,0-264c0-17.2-7.2-23.9-24.7-23.9c-111.8,0-223.6,0-335.3,0
	c-18.3,0-25.1,6.9-25.1,25.7c0,86.3,0,172.7,0,259c0,3.2,0.4,6.4,0.6,10C218,453.5,345.4,453.5,473.7,453.5z M485.3,468.3
	c-135.7,0-271.3,0-407.1,0c3.1,16.3,15.5,25.9,33.4,26c91.4,0,182.8,0,274.2,0c22.8,0,45.5,0.2,68.3-0.1
	C470.2,494,482.5,483.8,485.3,468.3z"/>
<path class="st0" d="M280.8,434.4c-52.9,0-105.7,0-158.6,0c-13,0-13.7-0.7-13.7-13.5c0-76.6,0.1-153.3-0.2-229.9
	c0-9.3,2.8-13,12.6-13c106.7,0.3,213.5,0.3,320.2,0c10.3,0,13.1,3.3,13,13.2c-0.3,77.3-0.3,154.6,0,231.9c0,8.9-3.2,11.5-11.8,11.4
	C388.6,434.3,334.7,434.4,280.8,434.4z M440.6,192.1c-106.8,0-212.4,0-317.8,0c0,76.7,0,152.5,0,228.7c106.2,0,211.8,0,317.8,0
	C440.6,344.2,440.6,268.4,440.6,192.1z"/>
<path class="st0" d="M281.6,488.2c-2,0-4.4,0.7-5.9-0.2c-3.2-1.9-6-4.7-8.9-7.1c2.9-2.1,5.5-5.2,8.7-6.2c3.7-1.1,8.2-1.1,11.9,0
	c3.5,1.1,6.3,4.3,9.4,6.5c-3.1,2.3-5.9,4.9-9.3,6.8C286,488.9,283.6,488.2,281.6,488.2z"/>
<path class="st0" d="M238.3,307.5c16.7,8.8,32.2,17,47.7,25.1c2.7,1.4,6.1,2.2,7.8,4.3c2.1,2.6,2.9,6.4,4.3,9.7
	c-3.5,0.8-7.7,3.3-10.4,2.2c-9.2-3.9-17.8-9-26.7-13.7c-10.9-5.8-21.6-12-32.8-17.2c-3-1.4-7.5-1.1-10.8-0.1
	c-4.4,1.3-8.4,4-12.5,6.3c-8.2,4.8-17.1,7.2-18.6,20.3c-1.4,12.6-16.3,18.3-28.5,14.2c-12.1-4.1-18.6-17-14.5-28.9
	c4.2-12.4,17.6-20.6,28.5-14.5c11.3,6.3,19,2.3,27.8-3.1c2.2-1.4,4.6-2.5,8.6-4.7c-10.3-5.6-19.4-10.7-26.9-14.7
	c-7.7,2.5-13.8,5.8-20.1,6.2c-12.1,0.8-22.7-10-23.1-21.7c-0.4-12.4,9-23.3,20.7-24.2c13.1-0.9,24.6,7.5,25.5,20
	c0.4,5.7,2.7,8.1,7.2,10.3c10.5,5.1,20.7,14.8,31.1,14.8c10.3,0,20.7-9.4,31.1-14.8c11.3-5.8,22.5-11.8,33.7-17.7
	c4.5-2.4,9.6-5.5,13,0.7c3.2,6-1.5,8.9-6.3,11.4c-16.9,8.7-33.7,17.6-50.6,26.5C242.2,305,240.9,305.9,238.3,307.5z M163.2,264.7
	c-1.4,0-2.9,0-4.3,0c-2.3,3.7-6.9,7.7-6.4,11c0.5,3.5,5.7,6.4,8.8,9.6c3.1-3.2,8.4-6.2,8.7-9.6C170.3,272.3,165.7,268.4,163.2,264.7
	z M176.5,338.5c-0.1-1.5-0.2-3-0.2-4.5c-3.8-2.2-7.9-6.5-11.2-6c-3.5,0.6-6.1,5.9-9.1,9.2c3.3,3,6.5,8.1,10,8.3
	C169.2,345.8,172.9,341,176.5,338.5z"/>
<path class="st0" d="M345.3,301.9c5.5-14.9,11-29.7,16.5-44.6c1-2.8,1.5-6.1,3.4-8.3c2.1-2.5,5.7-5.8,7.9-5.4
	c2.5,0.5,5.5,4.8,5.9,7.7c2.5,21.9,4.4,43.9,6.5,65.8c0.2,2.2,0.4,4.4,2.6,7.4c3.8-6.3,7.6-12.7,11.4-19c3.7-6.1,21.4-10.1,26.6-5.6
	c1.6,1.4,2.9,5.2,2.1,6.9c-1,2.2-4.5,4.9-6.5,4.5c-8.9-1.5-12.4,3.9-15.9,10.4c-5.3,9.7-10.8,19.2-16.9,28.4
	c-1.7,2.5-6.1,5.3-8.5,4.7c-2.3-0.5-4.9-5.1-5.3-8.1c-2.5-20.8-4.5-41.6-8.2-62.9c-5.7,15.4-11.1,31-17.2,46.3
	c-1.5,3.7-5.5,6.3-8.3,9.4c-2.2-3.5-5.6-6.8-6.4-10.6c-2.6-12.4-4.2-25-6.5-39.5c-7.1,6.6-13.3,12.3-19.5,18c-5.4,5-27.9,8.6-33.9,5
	c-5-3-5.8-7.3-1-11.4c1.4-1.2,3.8-2.5,5.4-2.2c18.3,3.4,27.3-10.4,38.6-20.2c5-4.3,9.2-13.8,16.8-9.2c4.1,2.5,4.6,11.4,6.3,17.6
	c1.2,4.7,1.7,9.6,2.5,14.4C344.2,301.7,344.8,301.8,345.3,301.9z"/>
</svg>
