<?xml version="1.0" encoding="utf-8"?>
<!-- Generator: Adobe Illustrator 22.1.0, SVG Export Plug-In . SVG Version: 6.00 Build 0)  -->
<svg version="1.1" id="Layer_1" xmlns="http://www.w3.org/2000/svg" xmlns:xlink="http://www.w3.org/1999/xlink" x="0px" y="0px"
	 viewBox="0 0 534.3 546.9" style="enable-background:new 0 0 534.3 546.9;" xml:space="preserve">
<style type="text/css">
	.st0{fill:#FEBDD0;}
</style>
<g>
	<path class="st0" d="M268.8,258h-145v80.8h124.5v33.9H123.8v138H85.7V224.2h183L268.8,258L268.8,258z"/>
	<path class="st0" d="M499.9,310.8c0,12.7-2.2,24.5-6.6,35.3s-10.6,20.2-18.6,28.2c-9.9,9.9-21.6,17.3-35,22.2
		c-13.5,4.9-30.5,7.4-51,7.4h-38.1v106.8h-38.1V224.2h77.8c17.2,0,31.8,1.4,43.7,4.3c11.9,2.9,22.5,7.4,31.8,13.6
		c10.9,7.3,19.3,16.4,25.3,27.3C496.9,280.3,499.9,294.1,499.9,310.8z M460.1,311.7c0-9.9-1.7-18.5-5.2-25.8
		c-3.5-7.3-8.7-13.3-15.8-17.9c-6.2-4-13.2-6.8-21.1-8.6c-7.9-1.7-17.9-2.6-29.9-2.6h-37.7v114.5h32.1c15.4,0,27.9-1.4,37.5-4.1
		c9.6-2.8,17.4-7.2,23.5-13.2c6-6.2,10.3-12.6,12.8-19.4C458.9,327.8,460.1,320.2,460.1,311.7z"/>
</g>
</svg>
