<?xml version="1.0" encoding="utf-8"?>
<!-- Generator: Adobe Illustrator 22.1.0, SVG Export Plug-In . SVG Version: 6.00 Build 0)  -->
<svg version="1.1" id="Layer_1" xmlns="http://www.w3.org/2000/svg" xmlns:xlink="http://www.w3.org/1999/xlink" x="0px" y="0px"
	 viewBox="0 0 705.4 209.5" style="enable-background:new 0 0 705.4 209.5;" xml:space="preserve">
<g>
	<path d="M179.5,29.9c1.3,1.6,2,3.8,2,6.4c0,8.7-4.7,12.7-14,12.1l-6.6-0.6c-7.4-0.6-14.8-1.1-22.2-1.5c-7.4-0.4-15.1-0.6-23.1-0.6
		h-8.5c-1.5,18.6-3.1,35.6-4.7,50.9l32.4-0.6c4.7,0,7.8,0.8,9.3,2.5c1.6,1.6,2.4,3.8,2.4,6.6c0,4.3-1.3,7.6-3.8,10.1
		c-2.5,2.5-6.1,3.7-10.8,3.7H99.8l-1.1,8.1c-2.6,20.7-8.3,35.5-16.9,44.3c-8.6,8.8-20.5,13.2-35.6,13.2c-8.6,0-16.4-1.9-23.6-5.6
		c-7.2-3.7-12.4-8.2-15.8-13.5c-1.4-2.1-2.1-4.7-2.1-7.7c0-3,0.7-5.7,2.2-7.9c1.4-2.3,3.2-3.4,5.4-3.4c1.5,0,3,0.5,4.4,1.5
		c1.4,1,3.3,3,5.6,5.8c6,7.9,13.5,11.9,22.4,11.9c7.2,0,13.2-2.9,18-8.8c4.8-5.8,8-15.1,9.3-27.6l1.1-10.4h-9.1
		c-2.9,0-5.4-0.8-7.5-2.5c-2.1-1.6-3.1-4-3.1-7c0-3.9,1-6.9,3-9c2-2.1,5-3.1,8.9-3.1c3.5,0,7-0.1,10.4-0.2
		c1.5-13.8,3.1-30.6,4.9-50.4c-13.6,1.3-23.1,3.5-28.7,6.6c-5.5,3.1-8.3,7.8-8.3,14c0,4.3,1.3,8.4,3.8,12.3c0.8,1.1,1.1,2.3,1.1,3.4
		c0,2.3-1.3,4.2-3.8,5.9c-2.5,1.7-5.3,2.5-8.5,2.5c-3.4,0-6.3-1-8.7-3c-1.5-1.3-3-3.8-4.3-7.7c-1.4-3.9-2.1-8.2-2.1-13
		c0-15.6,8-26.9,24-34c16-7,39.5-10.6,70.3-10.6c21.4,0,40.2,1.1,56.6,3.4C175.7,27.2,178.2,28.2,179.5,29.9z"/>
	<path d="M234.4,143.2c0.9,1.5,1.4,3.6,1.4,6.2c0,5-1.2,8.9-3.6,11.7c-4.7,5.7-11.2,10.9-19.7,15.7c-8.5,4.8-17.6,7.2-27.3,7.2
		c-13.2,0-23.5-3.6-30.7-10.8c-7.3-7.2-10.9-17-10.9-29.4c0-8.7,1.8-16.8,5.5-24.2c3.6-7.5,8.7-13.4,15.2-17.8
		c6.5-4.4,13.8-6.6,22-6.6c7.3,0,13.1,2.2,17.5,6.5c4.4,4.3,6.6,10.2,6.6,17.6c0,8.7-3.1,16.1-9.3,22.4s-16.8,11.2-31.6,14.8
		c3.1,5.8,9.1,8.7,17.9,8.7c5.7,0,12.1-2,19.3-5.9c7.2-4,13.5-9.1,18.8-15.6c1.5-1.8,3.2-2.6,5.1-2.6
		C232.1,141,233.4,141.7,234.4,143.2z M171.2,121.7c-3.2,5.4-4.8,11.9-4.8,19.6v0.4c7.4-1.8,13.3-4.4,17.5-7.9
		c4.3-3.5,6.4-7.6,6.4-12.3c0-2.4-0.7-4.3-2-5.8c-1.3-1.4-3.1-2.2-5.4-2.2C178.3,113.6,174.4,116.3,171.2,121.7z"/>
	<path d="M308.5,143.2c0.9,1.5,1.4,3.6,1.4,6.2c0,5-1.2,8.9-3.6,11.7c-4.7,5.7-11.2,10.9-19.7,15.7c-8.5,4.8-17.6,7.2-27.3,7.2
		c-13.2,0-23.5-3.6-30.7-10.8c-7.3-7.2-10.9-17-10.9-29.4c0-8.7,1.8-16.8,5.5-24.2c3.6-7.5,8.7-13.4,15.2-17.8
		c6.5-4.4,13.8-6.6,22-6.6c7.3,0,13.1,2.2,17.5,6.5c4.4,4.3,6.6,10.2,6.6,17.6c0,8.7-3.1,16.1-9.3,22.4s-16.8,11.2-31.6,14.8
		c3.1,5.8,9.1,8.7,17.9,8.7c5.7,0,12.1-2,19.3-5.9c7.2-4,13.5-9.1,18.8-15.6c1.5-1.8,3.2-2.6,5.1-2.6
		C306.3,141,307.6,141.7,308.5,143.2z M245.3,121.7c-3.2,5.4-4.8,11.9-4.8,19.6v0.4c7.4-1.8,13.3-4.4,17.5-7.9
		c4.3-3.5,6.4-7.6,6.4-12.3c0-2.4-0.7-4.3-2-5.8c-1.3-1.4-3.1-2.2-5.4-2.2C252.5,113.6,248.5,116.3,245.3,121.7z"/>
	<path d="M370,143.2c0.9,1.5,1.4,3.6,1.4,6.2c0,5-1.2,8.9-3.6,11.7c-5.4,6.7-11.3,12.1-17.6,16.4c-6.4,4.3-13.6,6.4-21.6,6.4
		c-11.1,0-19.3-5-24.6-15.1c-5.3-10.1-8-23.1-8-39c0-15.3,2-32.8,5.9-52.4c4-19.6,9.8-36.5,17.5-50.6c7.7-14.1,16.9-21.1,27.6-21.1
		c6,0,10.8,2.8,14.2,8.4c3.5,5.6,5.2,13.6,5.2,24c0,15-4.2,32.3-12.5,52.1c-8.3,19.7-19.6,39.3-33.8,58.7c0.9,5.2,2.3,8.8,4.3,11
		c2,2.2,4.7,3.3,7.9,3.3c5.2,0,9.7-1.5,13.6-4.4c3.9-3,8.9-8,14.9-15.2c1.5-1.8,3.2-2.6,5.1-2.6C367.8,141,369.1,141.7,370,143.2z
		 M333.1,40c-3.6,10.4-6.9,23.4-9.6,38.9c-2.8,15.5-4.3,30.3-4.5,44.5c8.9-14.7,16-29.5,21.3-44.2c5.3-14.8,7.9-28.3,7.9-40.5
		c0-9.6-1.8-14.3-5.3-14.3C340,24.4,336.8,29.6,333.1,40z"/>
	<path d="M454.1,143.2c0.9,1.5,1.4,3.6,1.4,6.2c0,4.7-1.2,8.6-3.6,11.7c-5.9,7.7-13.2,13.7-22,18.1c-8.7,4.4-18.6,6.6-29.5,6.6
		c-8.6,0-16-1.3-22.3-3.9c-6.3-2.6-11.1-6.1-14.4-10.6c-3.3-4.5-5-9.5-5-15c0-8.3,3.3-15.7,10-22.1c6.7-6.4,16.2-12.6,28.7-18.5
		l-30.9,0.8c-2.8,0.1-4.9-0.8-6.3-2.9c-1.4-2.1-2.2-4.6-2.2-7.5c0-3,0.7-5.7,2.2-8c1.4-2.3,3.4-3.5,5.9-3.5c5.8,0,13.5,0.4,23.2,1.3
		c2,0.1,5.7,0.4,11,0.8c5.3,0.4,9.8,0.6,13.5,0.6c1.3,0,3.6-0.5,7.2-1.5c0.6-0.1,1.9-0.4,3.7-0.9c1.8-0.5,3.4-0.8,4.6-0.8
		c2,0,3.7,0.9,5,2.6c1.3,1.8,2,4.5,2,8.1c0,4-0.9,7.2-2.8,9.4c-1.9,2.3-4.8,4.3-8.9,6c-11.4,4.9-20.9,10.2-28.5,15.8
		c-7.5,5.6-11.3,11.2-11.3,16.7c0,3.5,1.6,6.4,4.9,8.7c3.3,2.3,8.1,3.4,14.5,3.4c7,0,14.2-1.8,21.4-5.3c7.2-3.5,13.7-8.9,19.5-16
		c1.5-1.8,3.2-2.6,5.1-2.6C451.9,141,453.2,141.7,454.1,143.2z"/>
	<path d="M540,127.6c0.9,1.6,1.3,3.7,1.3,6.2c0,6-1.8,9.6-5.5,10.8c-7.5,2.6-15.8,4.1-24.9,4.5c-2.4,10.6-7.1,19-14.1,25.4
		c-7,6.4-15,9.5-24,9.5c-7.5,0-14-1.8-19.3-5.5c-5.3-3.6-9.4-8.5-12.2-14.5c-2.8-6-4.1-12.6-4.1-19.6c0-9.6,1.8-18.1,5.5-25.6
		c3.6-7.5,8.7-13.3,15.1-17.5c6.4-4.2,13.5-6.3,21.3-6.3c9.6,0,17.3,3.3,23.1,9.9c5.8,6.6,9.3,14.7,10.3,24.4
		c5.9-0.4,13-1.6,21.1-3.8c1-0.3,1.9-0.4,2.6-0.4C537.9,125.1,539.2,125.9,540,127.6z M484.9,159.1c3-3.3,4.9-8,5.9-14.1
		c-3.9-2.6-6.9-6.1-9-10.4c-2.1-4.3-3.1-8.8-3.1-13.6c0-2,0.2-4,0.6-6h-0.9c-5,0-9.2,2.4-12.5,7.3c-3.3,4.8-5,11.7-5,20.5
		c0,6.9,1.3,12.2,4.1,15.8c2.7,3.6,5.9,5.5,9.5,5.5C478.4,164,481.9,162.3,484.9,159.1z"/>
	<path d="M528.4,176.4c-2-5-2.9-13.1-2.9-24.1c0-16.3,2.3-31.9,7-46.6c1.1-3.6,3-6.3,5.6-8c2.6-1.7,6.2-2.5,10.8-2.5
		c2.5,0,4.3,0.3,5.3,0.9c1,0.6,1.5,1.8,1.5,3.6c0,2-0.9,6.5-2.8,13.6c-1.3,5-2.3,9.4-3,13.2c-0.8,3.8-1.4,8.4-1.9,14
		c4.1-10.8,8.8-19.6,14-26.4c5.2-6.8,10.2-11.6,15.2-14.5c5-2.9,9.5-4.3,13.7-4.3c8.2,0,12.3,4.1,12.3,12.3c0,4.9-1.4,13.8-4.1,26.6
		c-2.4,10.9-3.6,18.2-3.6,21.7c0,5,1.8,7.5,5.5,7.5c2.5,0,5.5-1.5,9-4.6c3.5-3.1,8.1-8.1,13.9-15c1.5-1.8,3.2-2.6,5.1-2.6
		c1.6,0,2.9,0.8,3.9,2.3c0.9,1.5,1.4,3.6,1.4,6.2c0,5-1.2,8.9-3.6,11.7c-5.4,6.7-11.2,12.1-17.4,16.4c-6.2,4.3-13.3,6.4-21.2,6.4
		c-6.4,0-11.3-1.9-14.5-5.6c-3.3-3.7-4.9-9.1-4.9-16.1c0-3.5,0.9-9.8,2.6-18.9c1.6-7.9,2.5-13.4,2.5-16.4c0-2-0.7-3-2.1-3
		c-1.6,0-3.9,2.1-6.9,6.3c-3,4.2-6,9.8-9.1,16.7c-3.1,6.9-5.6,14.2-7.5,21.9c-1.4,5.9-3,9.9-4.8,12c-1.8,2.1-4.7,3.1-8.6,3.1
		C533.7,184,530.4,181.4,528.4,176.4z"/>
	<path d="M690.1,148.9c0.9,1.5,1.4,3.6,1.4,6.2c0,4.5-1.1,8.4-3.2,11.7c-3.5,5.4-8.1,9.6-13.9,12.6c-5.7,3-12.5,4.5-20.5,4.5
		c-12.1,0-21.4-3.6-28.1-10.8c-6.7-7.2-10-17-10-29.3c0-8.7,1.8-16.8,5.5-24.2c3.6-7.5,8.7-13.4,15.2-17.8c6.5-4.4,13.8-6.6,22-6.6
		c7.3,0,13.1,2.2,17.5,6.5c4.4,4.3,6.6,10.2,6.6,17.6c0,8.7-3.1,16.1-9.3,22.4s-16.8,11.2-31.8,14.8c3,5.8,8.1,8.7,15.3,8.7
		c5.2,0,9.4-1.2,12.7-3.6c3.3-2.4,7.2-6.4,11.6-12.1c1.5-1.9,3.2-2.8,5.1-2.8C687.9,146.6,689.1,147.4,690.1,148.9z M643.5,121.7
		c-3.2,5.4-4.8,11.9-4.8,19.6v0.4c7.4-1.8,13.3-4.4,17.5-7.9c4.3-3.5,6.4-7.6,6.4-12.3c0-2.4-0.7-4.3-2-5.8
		c-1.3-1.4-3.1-2.2-5.4-2.2C650.6,113.6,646.7,116.3,643.5,121.7z"/>
</g>
</svg>
